<?xml version="1.0" encoding="UTF-8"?>
<svg id="Livello_1" xmlns="http://www.w3.org/2000/svg" version="1.1" viewBox="0 0 4049.88 3545.55">
  <!-- Generator: Adobe Illustrator 30.6.0, SVG Export Plug-In . SVG Version: 2.1.4 Build 109)  -->
  <g>
    <path d="M635.19,3355.02l-29.88,98.72c-10.49,31.59-12.84,56.93-7.06,76.01h-171.77c-3.57-19.75-.12-45.41,10.37-77l24.89-78.98c12.37-38.83,13.11-65.65,2.21-80.46-10.91-14.81-34.12-22.21-69.66-22.21h-136.24l-91.21,258.65H0l247.88-702.89h332.69c82.26,0,138.83,18.26,169.73,54.79,30.88,36.53,35.3,86.06,13.25,148.57-28.55,80.95-86.02,136.57-172.37,166.84,32.01,11.85,50.8,29.96,56.37,54.3,5.56,24.36,1.44,58.91-12.37,103.66ZM367.72,2960.14l-65.45,185.59h147.09c32.24,0,60.1-8.05,83.56-24.19,23.45-16.12,40.52-39.32,51.2-69.6,21.58-61.21-2.52-91.81-72.27-91.81h-144.13Z"/>
    <path d="M928.32,3545.55c-91.49,0-156.5-24.68-195.02-74.04-39.01-48.03-42.37-117.8-10.11-209.29l153.53-435.36h166.84l-154.23,437.33c-15.79,44.76-15.8,78.82,0,102.18,15.78,23.37,45.72,35.05,89.82,35.05s82.43-11.68,115.03-35.05c32.58-23.35,56.77-57.41,72.56-102.18l154.23-437.33h166.84l-153.53,435.36c-31.8,90.18-83.55,159.93-155.25,209.29-71.7,49.36-155.28,74.04-250.7,74.04Z"/>
    <path d="M1622.31,3545.55c-104.64,0-177.5-33.23-218.55-99.71-41.07-66.47-41.86-155.64-2.4-267.53,39.92-113.19,103.07-202.7,189.47-268.52,86.39-65.8,183.22-98.72,290.5-98.72,86.87,0,152.45,23.04,196.76,69.1,45.37,46.74,59.24,112.88,41.58,198.43h-168.81c3.39-39.49-5.45-69.92-26.54-91.32-21.09-21.38-52.36-32.08-93.82-32.08-56.61,0-107.05,19.42-151.35,58.25-44.3,38.84-78.98,93.78-104.05,164.86-25.07,71.08-29.15,126.04-12.24,164.86,16.91,38.84,53.65,58.25,110.27,58.25,43.44,0,84.69-12.49,123.8-37.51,39.08-25,70.48-59.88,94.16-104.64h166.84c-42.56,90.82-103.27,161.25-182.11,211.26-79.51,50.02-164.02,75.03-253.52,75.03Z"/>
    <path d="M2714.88,2826.86h203.37l-383.65,287.28,135.77,415.62h-197.44l-95.15-304.06-127.85,93.79-74.16,210.28h-166.84l247.88-702.89h166.84l-107.23,304.06,398.46-304.06Z"/>
    <path d="M3472.07,2826.86l-52.57,149.07h-370.2l-44.91,127.35h336.64l-49.44,140.18h-336.64l-48.39,137.22h369.22l-52.57,149.07h-536.05l247.88-702.89h537.04Z"/>
    <path d="M3907.74,3355.02l-29.88,98.72c-10.49,31.59-12.84,56.93-7.06,76.01h-171.77c-3.57-19.75-.12-45.41,10.37-77l24.89-78.98c12.37-38.83,13.11-65.65,2.21-80.46-10.91-14.81-34.12-22.21-69.66-22.21h-136.24l-91.21,258.65h-166.84l247.88-702.89h332.69c82.26,0,138.83,18.26,169.73,54.79,30.88,36.53,35.3,86.06,13.25,148.57-28.55,80.95-86.02,136.57-172.37,166.84,32.01,11.85,50.8,29.96,56.37,54.3,5.55,24.36,1.44,58.91-12.37,103.66ZM3640.27,2960.14l-65.45,185.59h147.1c32.24,0,60.1-8.05,83.56-24.19,23.45-16.12,40.52-39.32,51.2-69.6,21.58-61.21-2.52-91.81-72.27-91.81h-144.13Z"/>
  </g>
  <path d="M877.27,1895.96l455.48,390.38,693.54-1701.45h1017.84l-1384.65,979.62,919.46,721.83,519.85-356-460.34-368.28,556.29-392.83s160.33-126.44,213.77-290.94c53.44-164.5,85.02-341.27-24.29-559.79C3274.91,99.98,3052.63,1.77,2837.65.55c-214.99-1.23-1181.81,0-1181.81,0l-778.56,1895.41Z"/>
</svg>